<svg xmlns="http://www.w3.org/2000/svg"  viewBox="0 0 48 48" width="48px" height="48px" baseProfile="basic"><circle cx="24" cy="24" r="20" fill="#b3e5fc"/><path fill="#8bc34a" d="M42,24c0,1.55-1.565,2.873-1.947,4.302c-0.395,1.479,0.287,3.405-0.463,4.7	c-0.76,1.313-2.776,1.681-3.842,2.747c-1.066,1.066-1.434,3.082-2.747,3.842c-1.295,0.749-3.221,0.067-4.699,0.462	C26.873,40.435,25.55,42,24,42c-1.55,0-2.873-1.565-4.302-1.947c-1.479-0.395-3.405,0.287-4.7-0.463	c-1.313-0.76-1.681-2.776-2.747-3.842c-1.066-1.066-3.082-1.434-3.842-2.747c-0.749-1.295-0.067-3.221-0.462-4.699	C7.565,26.873,6,25.55,6,24c0-1.55,1.565-2.873,1.947-4.302c0.395-1.479-0.287-3.405,0.463-4.7c0.76-1.313,2.776-1.681,3.842-2.747	c1.066-1.066,1.434-3.082,2.747-3.842c1.295-0.749,3.221-0.067,4.699-0.462C21.127,7.565,22.45,6,24,6	c1.55,0,2.873,1.565,4.302,1.947c1.479,0.395,3.405-0.287,4.7,0.463c1.313,0.76,1.681,2.776,2.747,3.842	c1.066,1.066,3.082,1.434,3.842,2.747c0.749,1.295,0.067,3.221,0.462,4.699C40.435,21.127,42,22.45,42,24z"/><circle cx="24" cy="14" r="4" fill="#795548"/><circle cx="33" cy="19" r="4" fill="#795548"/><circle cx="24" cy="24" r="4" fill="#795548"/><circle cx="16" cy="30" r="4" fill="#795548"/><circle cx="15" cy="20" r="4" fill="#795548"/><path fill="#795548" d="M29.487,35.813c-1.163,1.878-3.629,2.457-5.507,1.294s-2.457-3.629-1.294-5.507"/><ellipse cx="26.087" cy="33.707" fill="#d4e157" rx="2" ry="4" transform="rotate(-58.224 26.087 33.708)"/><path fill="#795548" d="M36.724,26.558c0.805,2.057-0.21,4.378-2.268,5.182c-2.057,0.805-4.378-0.21-5.182-2.268"/><ellipse cx="32.999" cy="28.015" fill="#d4e157" rx="4" ry="2" transform="rotate(-21.362 33.004 28.016)"/></svg>