<svg width="2847" height="742" viewBox="0 0 2847 742" fill="none" xmlns="http://www.w3.org/2000/svg">
<path d="M364.179 644.846C364.179 615.852 386.654 594.094 423.559 594.094C481.564 594.094 532.727 667.255 591.646 667.255C611.583 667.255 620.583 646.107 614.072 629.484C606.885 611.138 584.649 605.443 590.328 601.33C598.693 595.297 624.835 599.204 642.497 623.377C647.697 630.489 661.411 657.431 644.73 690.85C626.162 728.061 583.619 741.742 541.554 741.742C421.59 741.742 364.179 681.76 364.179 644.846Z" fill="#181818"/>
<path d="M344.531 644.846C344.531 615.852 322.056 594.094 285.15 594.094C227.146 594.094 175.982 667.255 117.072 667.255C97.127 667.255 88.1272 646.107 94.638 629.484C101.825 611.138 124.06 605.443 118.382 601.33C110.017 595.297 83.8827 599.204 66.2128 623.377C61.0124 630.489 47.2984 657.431 63.9793 690.85C82.5476 728.061 125.099 741.742 167.164 741.742C287.128 741.742 344.531 681.76 344.531 644.846Z" fill="#181818"/>
<path d="M484.094 304.699C448.993 337.295 402.436 355.756 354.355 355.756C306.274 355.756 259.717 337.287 224.616 304.699C197.221 331.039 160.637 345.907 122.346 345.907C113.981 345.907 105.797 345.174 97.811 343.839C120.179 378.346 142.612 431.455 149.148 509.956C149.527 514.489 153.343 517.217 157.769 516.17C181.57 510.549 256.387 494.956 354.363 494.956C452.339 494.956 527.156 510.549 550.958 516.17C555.383 517.217 559.199 514.489 559.578 509.956C566.114 431.455 588.539 378.338 610.915 343.839C602.929 345.182 594.745 345.907 586.38 345.907C548.073 345.907 511.497 331.039 484.094 304.699Z" fill="#181818"/>
<path d="M586.364 75.9297C562.718 75.9297 539.757 82.7125 519.945 95.5528L508.134 103.209L501.78 90.6573C473.429 34.7382 416.95 0 354.355 0C291.768 0 235.281 34.7382 206.93 90.6573L200.567 103.209L188.757 95.5528C168.952 82.7125 145.983 75.9297 122.338 75.9297C54.8807 75.9297 0 130.81 0 198.259C0 265.717 54.8807 320.597 122.338 320.597C157.81 320.597 191.518 305.177 214.808 278.302L224.014 267.67L233.616 277.955C265.239 311.804 308.111 330.446 354.347 330.446C400.582 330.446 443.463 311.804 475.077 277.955L484.679 267.67L493.885 278.302C517.175 305.177 550.875 320.597 586.355 320.597C653.813 320.597 708.693 265.717 708.693 198.259C708.702 130.81 653.821 75.9297 586.364 75.9297Z" fill="#181818"/>
<path d="M967.064 215.443C1014.89 215.443 1049.98 247.031 1063.14 279.935L1035.51 294.852C1021.47 266.773 999.091 248.347 967.064 248.347C933.283 248.347 910.03 267.651 910.03 294.413C910.03 319.42 925.824 335.214 959.167 347.937L981.542 356.273C1036.82 376.893 1071.48 400.584 1071.48 449.282C1071.48 501.928 1021.03 534.394 968.819 534.394C916.611 534.394 873.616 502.806 861.771 458.934L891.165 444.895C901.695 477.36 929.334 501.051 968.819 501.051C1003.92 501.051 1033.75 480.87 1033.75 449.721C1033.75 414.623 1009.18 401.461 972.768 387.422L949.954 378.648C903.45 361.099 873.616 336.969 873.616 293.535C873.616 248.786 913.102 215.443 967.064 215.443ZM1361.48 527.813L1329.89 455.424H1165.81L1134.22 527.813H1095.61L1232.49 220.707H1262.76L1400.08 527.813H1361.48ZM1179.41 424.713H1316.29L1247.85 268.528L1179.41 424.713ZM1683.5 220.707H1722.11L1584.79 527.813H1554.51L1417.63 220.707H1456.24L1569.87 479.992L1683.5 220.707ZM1907.69 216.32C1987.53 216.32 2064.75 281.251 2064.75 374.26C2064.75 467.269 1987.53 532.2 1907.69 532.2C1827.4 532.2 1750.62 467.269 1750.62 374.26C1750.62 281.251 1827.4 216.32 1907.69 216.32ZM1907.69 497.541C1967.79 497.541 2027.02 446.649 2027.02 374.26C2027.02 301.871 1967.79 250.979 1907.69 250.979C1847.14 250.979 1788.35 301.871 1788.35 374.26C1788.35 446.649 1847.14 497.541 1907.69 497.541ZM2336.32 527.813H2296.83L2219.18 417.255H2210.84H2147.23V527.813H2110.81V220.707H2210.84C2279.72 220.707 2319.65 262.825 2319.65 319.859C2319.65 363.731 2295.95 397.951 2253.84 411.113L2336.32 527.813ZM2147.23 254.928V384.79H2209.96C2254.28 384.79 2283.23 361.976 2283.23 319.859C2283.23 277.303 2254.28 254.928 2209.96 254.928H2147.23ZM2412.22 493.593H2549.97V527.813H2375.8V220.707H2412.22V493.593ZM2846.11 220.707L2731.61 386.106V527.813H2695.19V386.106L2580.69 220.707H2622.36L2713.18 352.763L2804.43 220.707H2846.11Z" fill="#181818"/>
</svg>
